#!OML:ASF E:\emotionWalksFemale\Project 1\Capture day 1\Session 1\Female1.ASF
:FULLY-SPECIFIED
:DEGREES
1012
root 7.61524 15.3489 -19.3772 182.526 17.7422 176.062
lowerback 3.03499 -3.25546 4.15652
upperback -0.667392 -3.93679 3.66048
thorax -2.41534 -1.92844 1.64446
lowerneck 0.911478 11.3268 11.8823
upperneck 16.4261 16.9119 -6.95665
head 6.45286 8.79516 -2.96555
rclavicle -2.82274e-014 -7.95139e-015
rhumerus -64.4824 7.85947 -65.0164
rradius 45.778
rwrist 17.813
rhand -16.4357 -52.9381
rfingers 7.12502
rthumb -170.22 97.309
lclavicle -2.82274e-014 -7.95139e-015
lhumerus -10.6102 -19.1644 64.8621
lradius 37.9748
lwrist -5.12942
lhand -3.70643 -29.1567
lfingers 7.12502
lthumb 22.0358 -0.392136
rfemur -28.8435 16.4595 16.9029
rtibia 31.6262
rfoot -9.83418 -17.2676
rtoes 3.32127
lfemur 9.17334 -2.00055 -33.9358
ltibia 24.2767
lfoot -8.66912 8.69615
ltoes -35.1231
1013
root 7.62856 15.3584 -19.4617 182.625 17.793 176.095
lowerback 3.19151 -3.37747 4.46805
upperback -0.65514 -4.05905 3.79044
thorax -2.50465 -1.98722 1.6229
lowerneck 0.697379 11.3895 11.7327
upperneck 16.7153 17.0036 -6.90385
head 6.57294 8.83028 -2.89725
rclavicle -5.40694e-014 1.06549e-013
rhumerus -64.6491 7.97492 -65.0731
rradius 46.2134
rwrist 17.3429
rhand -16.4719 -52.393
rfingers 7.12502
rthumb -170.255 97.8525
lclavicle -5.40694e-014 1.06549e-013
lhumerus -10.7239 -19.6431 64.6663
lradius 38.1466
lwrist -5.1647
lhand -4.01027 -29.0166
lfingers 7.12502
lthumb 21.7441 -0.217923
rfemur -28.4919 16.4185 16.9665
rtibia 31.5467
rfoot -10.245 -17.4809
rtoes 1.68578
lfemur 9.10513 -1.76697 -33.9739
ltibia 24.6756
lfoot -7.74589 9.01364
ltoes -37.7529
1014
root 7.63922 15.3746 -19.5348 183.01 17.9207 176.139
lowerback 3.13451 -3.41887 4.78178
upperback -0.665764 -4.08751 3.92685
thorax -2.49727 -1.99863 1.58905
lowerneck 0.468914 11.4366 11.5958
upperneck 16.9359 17.0692 -6.89851
head 6.6762 8.84788 -2.84863
rclavicle -7.03698e-014 -5.56597e-014
rhumerus -64.5499 7.91485 -65.0538
rradius 46.3639
rwrist 17.062
rhand -17.3095 -51.8435
rfingers 7.12502
rthumb -171.063 98.3658
lclavicle -7.03698e-014 -5.56597e-014
lhumerus -10.6668 -20.1708 64.4625
lradius 38.3
lwrist -5.06133
lhand -3.96142 -28.963
lfingers 7.12502
lthumb 21.791 -0.169699
rfemur -28.5269 16.4166 16.9426
rtibia 31.4615
rfoot -10.5768 -17.5217
rtoes 0.733847
lfemur 8.67882 -1.54036 -33.9553
ltibia 25.0004
lfoot -6.8643 9.10334
ltoes -37.3428
1015
root 7.65206 15.3942 -19.6104 183.321 18.1179 176.088
lowerback 3.1818 -3.41473 4.97519
upperback -0.807845 -4.04944 4.031
thorax -2.67748 -1.9807 1.59706
lowerneck 0.737698 11.3709 11.6543
upperneck 17.0448 17.0526 -6.98491
head 6.67635 8.85377 -2.90075
rclavicle 2.44505e-014 3.02153e-014
rhumerus -64.7846 8.02636 -65.1265
rradius 46.5509
rwrist 17.1344
rhand -17.8595 -51.9021
rfingers 7.12502
rthumb -171.594 98.2852
lclavicle 2.44505e-014 3.02153e-014
lhumerus -10.8795 -20.7161 64.3468
lradius 38.4871
lwrist -5.10849
lhand -3.50355 -29.0657
lfingers 7.12502
lthumb 22.2306 -0.32416
rfemur -28.5096 16.435 16.8569
rtibia 31.3177
rfoot -10.819 -17.4638
rtoes -0.452914
lfemur 8.22811 -1.21466 -34.0007
ltibia 25.3815
lfoot -5.90712 9.0036
ltoes -35.2148
1016
root 7.67035 15.4121 -19.6919 183.347 18.3164 176.025
lowerback 3.00828 -3.44637 5.01292
upperback -0.592765 -4.10686 4.12616
thorax -2.35412 -2.0001 1.65674
lowerneck 0.88074 11.3573 11.8501
upperneck 17.0386 17.0858 -7.23107
head 6.69205 8.87025 -3.01028
rclavicle 5.56597e-014 3.97569e-014
rhumerus -64.5301 8.01613 -65.1897
rradius 46.4389
rwrist 17.0016
rhand -17.8122 -52.0033
rfingers 7.12502
rthumb -171.548 98.1858
lclavicle 5.56597e-014 3.97569e-014
lhumerus -10.7873 -20.8444 64.0693
lradius 38.6275
lwrist -5.36013
lhand -3.1346 -29.0648
lfingers 7.12502
lthumb 22.5848 -0.365924
rfemur -28.1048 16.56 16.8491
rtibia 31.1358
rfoot -11.2245 -17.457
rtoes -0.952151
lfemur 8.10295 -0.906201 -34.0767
ltibia 25.7809
lfoot -4.90359 9.01589
ltoes -32.7184
1017
root 7.68588 15.4307 -19.7712 183.371 18.5522 176.046
lowerback 3.42072 -3.56975 4.98582
upperback -0.63754 -4.21468 4.34213
thorax -2.61574 -2.0482 1.93017
lowerneck 0.778787 11.4794 11.9563
upperneck 17.5166 17.3379 -7.35126
head 6.90976 8.99588 -3.01582
rclavicle -3.00165e-014 5.88403e-014
rhumerus -64.6234 8.53153 -65.3512
rradius 47.0037
rwrist 16.3392
rhand -17.2035 -52.3874
rfingers 7.12502
rthumb -170.961 97.8263
lclavicle -3.00165e-014 5.88403e-014
lhumerus -11.2632 -20.8778 64.0357
lradius 38.7705
lwrist -5.48076
lhand -3.10991 -28.9681
lfingers 7.12502
lthumb 22.6085 -0.272098
rfemur -27.7194 16.7056 16.9152
rtibia 31.0289
rfoot -11.4914 -17.3521
rtoes -0.882672
lfemur 8.06723 -0.646994 -34.1017
ltibia 26.0526
lfoot -3.91572 9.09508
ltoes -30.4087
1018
root 7.69938 15.448 -19.8511 183.39 18.7747 175.981
lowerback 3.49628 -3.57783 5.06553
upperback -0.484268 -4.21335 4.43067
thorax -2.49921 -2.04126 1.97571
lowerneck 0.858585 11.4122 12.048
upperneck 17.3943 17.3046 -7.74931
head 6.89563 8.96287 -3.16432
rclavicle -3.47873e-014 4.45278e-014
rhumerus -64.4751 8.60439 -65.4717
rradius 47.2575
rwrist 15.9982
rhand -17.0579 -52.4553
rfingers 7.12502
rthumb -170.821 97.7645
lclavicle -3.47873e-014 4.45278e-014
lhumerus -11.1706 -21.4233 63.7804
lradius 38.9128
lwrist -5.09157
lhand -2.87749 -28.8589
lfingers 7.12502
lthumb 22.8315 -0.190252
rfemur -27.419 16.8044 16.8798
rtibia 31.0123
rfoot -11.7957 -17.2053
rtoes -0.741103
lfemur 8.06897 -0.366302 -34.1844
ltibia 26.2388
lfoot -2.82349 8.99298
ltoes -28.7042
1019
root 7.71517 15.4605 -19.9281 183.548 18.9471 175.704
lowerback 3.65877 -3.54811 4.96364
upperback -0.685679 -4.15297 4.46064
thorax -2.78911 -2.01492 2.07915
lowerneck 1.14793 11.2147 12.0957
upperneck 17.5987 17.1415 -7.85935
head 6.90781 8.90457 -3.23815
rclavicle -1.78906e-014 -7.95139e-015
rhumerus -64.6278 8.60171 -65.4699
rradius 46.9521
rwrist 16.0526
rhand -17.3287 -52.2289
rfingers 7.12502
rthumb -171.082 97.9796
lclavicle -1.78906e-014 -7.95139e-015
lhumerus -11.4715 -22.1665 63.7204
lradius 39.0861
lwrist -4.79661
lhand -2.39157 -28.7763
lfingers 7.12502
lthumb 23.2978 -0.165909
rfemur -27.3979 16.8549 16.5672
rtibia 31.043
rfoot -12.0993 -17.0659
rtoes -0.978643
lfemur 7.85054 -0.0878852 -34.4292
ltibia 26.4249
lfoot -1.55024 8.8565
ltoes -28.529
1020
root 7.7301 15.4716 -20.0019 183.924 19.1154 175.525
lowerback 3.40845 -3.57558 4.85358
upperback -0.750588 -4.20379 4.57663
thorax -2.69902 -2.03561 2.24851
lowerneck 1.24878 11.1766 11.9915
upperneck 17.8475 17.1511 -7.83899
head 6.96069 8.91574 -3.21767
rclavicle -5.64548e-014 -1.74931e-014
rhumerus -64.5034 8.69143 -65.4439
rradius 46.9229
rwrist 16.0785
rhand -17.2073 -52.3162
rfingers 7.12502
rthumb -170.965 97.8973
lclavicle -5.64548e-014 -1.74931e-014
lhumerus -11.6328 -22.4982 63.6454
lradius 39.1627
lwrist -4.63695
lhand -2.31876 -28.6181
lfingers 7.12502
lthumb 23.3676 -0.0166458
rfemur -27.6327 16.8328 16.3129
rtibia 31.1494
rfoot -12.3412 -16.8458
rtoes -0.595283
lfemur 7.4398 0.158526 -34.577
ltibia 26.5693
lfoot -0.477627 8.87577
ltoes -28.899
